<svg width="259" height="71.201" viewBox="4.499984497255177 -4.201364534389601 265.0000155027448 77.2013645343896" xmlns="http://www.w3.org/2000/svg"><g id="svgGroup" stroke-linecap="round" fill-rule="evenodd" font-size="9pt" stroke="#000" stroke-width="0.25mm" fill="#000" style="stroke:#000;stroke-width:0.25mm;fill:#000"><path d="M 0 43.4 L 0 0 L 9.5 0 L 9.5 41.9 A 39.482 39.482 0 0 0 9.9 47.711 Q 10.781 53.619 13.6 57.4 A 13.242 13.242 0 0 0 22.056 62.556 A 20.418 20.418 0 0 0 25.9 62.9 A 21.386 21.386 0 0 0 30.904 62.351 A 13.455 13.455 0 0 0 38.6 57.55 A 17.382 17.382 0 0 0 41.396 52.155 Q 42.186 49.736 42.531 46.794 A 42.042 42.042 0 0 0 42.8 41.9 L 42.8 0 L 52 0 L 52 43 A 39.957 39.957 0 0 1 51.378 50.231 A 28.663 28.663 0 0 1 48.75 58.15 Q 45.5 64.5 39.65 67.85 A 25.023 25.023 0 0 1 31.089 70.804 A 32.816 32.816 0 0 1 25.9 71.2 A 32.706 32.706 0 0 1 17.895 70.275 A 22.492 22.492 0 0 1 6.9 64 Q 0.788 57.623 0.09 46.381 A 48.096 48.096 0 0 1 0 43.4 Z M 103.7 65.8 L 107.5 58.3 A 18.557 18.557 0 0 0 110.644 60.426 Q 112.198 61.27 114.05 61.95 A 24.073 24.073 0 0 0 121.661 63.387 A 27.464 27.464 0 0 0 122.5 63.4 Q 127.892 63.4 130.735 61.685 A 7.738 7.738 0 0 0 130.95 61.55 Q 133.8 59.7 133.8 56.8 A 7.123 7.123 0 0 0 133.486 54.653 A 6.212 6.212 0 0 0 132.75 53.1 A 6.384 6.384 0 0 0 131.821 52.006 Q 130.807 51.034 129.134 50.081 A 22.3 22.3 0 0 0 128.9 49.95 A 28.462 28.462 0 0 0 126.906 48.957 Q 124.79 47.995 121.801 46.946 A 103.602 103.602 0 0 0 120.8 46.6 A 46.616 46.616 0 0 1 116.402 44.857 Q 114.288 43.883 112.612 42.795 A 19.335 19.335 0 0 1 109.85 40.65 A 11.324 11.324 0 0 1 106.556 34.654 A 16.794 16.794 0 0 1 106.2 31.1 Q 106.2 25.1 111.45 20.95 Q 115.854 17.469 123.108 16.908 A 37.527 37.527 0 0 1 126 16.8 A 40.794 40.794 0 0 1 130.446 17.031 Q 132.754 17.284 134.77 17.815 A 25.234 25.234 0 0 1 134.9 17.85 Q 138.8 18.9 141.9 20.5 L 139.4 27.9 Q 136.7 26.3 133.25 25.3 A 25.024 25.024 0 0 0 128.767 24.453 A 31.837 31.837 0 0 0 125.6 24.3 A 20.632 20.632 0 0 0 122.663 24.495 Q 119.577 24.94 117.7 26.4 A 9.322 9.322 0 0 0 116.342 27.673 Q 115.64 28.492 115.305 29.365 A 4.529 4.529 0 0 0 115 31 A 4.921 4.921 0 0 0 116.495 34.552 A 7.082 7.082 0 0 0 117.1 35.1 Q 119.165 36.772 125.098 38.734 A 84.459 84.459 0 0 0 125.3 38.8 A 67.753 67.753 0 0 1 130.362 40.698 Q 136.289 43.217 139.1 46.1 Q 143 50.1 143 56.1 Q 143 62.848 137.749 66.855 A 16.618 16.618 0 0 1 137.35 67.15 Q 132.61 70.547 125.162 71.095 A 40.423 40.423 0 0 1 122.2 71.2 Q 116.3 71.2 111.55 69.7 A 30.883 30.883 0 0 1 107.71 68.215 Q 105.729 67.284 104.148 66.136 A 18.229 18.229 0 0 1 103.7 65.8 Z M 238 70 L 228.6 70 L 207.7 20.4 L 215.9 17 L 233.6 59.8 L 251.3 17 L 259 20.4 L 238 70 Z M 69.5 52.1 L 69.5 27.7 L 60.5 27.7 L 60.5 19.9 L 69.7 19.9 L 71.6 3.5 L 78.5 3.5 L 78.5 19.9 L 92.9 19.9 L 92.9 27.7 L 78.5 27.7 L 78.5 52.8 A 21.559 21.559 0 0 0 78.668 55.596 Q 79.141 59.202 80.95 60.9 Q 83.4 63.2 86.8 63.2 Q 89.3 63.2 91.55 62.4 Q 93.8 61.6 95.7 60.5 L 98.2 67.7 A 18.546 18.546 0 0 1 96.582 68.556 Q 95.78 68.935 94.835 69.308 A 43.365 43.365 0 0 1 92.8 70.05 Q 89.4 71.2 85.7 71.2 Q 78.2 71.2 73.85 66.25 A 16.116 16.116 0 0 1 70.622 60.348 Q 69.859 57.917 69.615 54.98 A 34.777 34.777 0 0 1 69.5 52.1 Z M 190.6 22.2 L 190.6 18 L 198.8 18 L 198.8 57.4 A 12.15 12.15 0 0 0 198.902 59.036 Q 199.234 61.47 200.65 62.35 Q 202.5 63.5 204.7 63.5 L 202.8 70.5 A 17.722 17.722 0 0 1 198.535 70.028 Q 192.898 68.628 191.303 63.08 A 13.59 13.59 0 0 1 191.2 62.7 A 21.307 21.307 0 0 1 188.09 66.126 A 28.498 28.498 0 0 1 184.95 68.55 Q 181 71.2 174.9 71.2 Q 168.4 71.2 163.1 67.9 A 22.947 22.947 0 0 1 155.687 60.373 A 27.923 27.923 0 0 1 154.65 58.55 A 27.228 27.228 0 0 1 152.02 50.608 A 36.644 36.644 0 0 1 151.5 44.3 A 33.142 33.142 0 0 1 152.497 36.031 A 27.968 27.968 0 0 1 154.65 30.3 Q 157.8 24.1 163.35 20.45 A 22.297 22.297 0 0 1 174.545 16.844 A 27.388 27.388 0 0 1 176.1 16.8 A 22.584 22.584 0 0 1 180.894 17.29 A 18.703 18.703 0 0 1 184.25 18.35 A 26.002 26.002 0 0 1 188.537 20.644 A 22.103 22.103 0 0 1 190.6 22.2 Z M 189.8 56.7 L 189.8 28.8 Q 187.1 26.9 183.85 25.75 Q 180.6 24.6 177 24.6 A 15.924 15.924 0 0 0 172.029 25.354 A 14.024 14.024 0 0 0 168.55 27.05 A 16.301 16.301 0 0 0 163.531 32.474 A 19.962 19.962 0 0 0 162.8 33.85 A 20.663 20.663 0 0 0 161.047 39.527 A 27.678 27.678 0 0 0 160.7 44 Q 160.7 49.6 162.8 53.95 A 17.602 17.602 0 0 0 165.906 58.496 A 15.697 15.697 0 0 0 168.6 60.75 Q 172.3 63.2 176.9 63.2 Q 180.7 63.2 184.1 61.35 Q 187.5 59.5 189.8 56.7 Z" vector-effect="non-scaling-stroke"/></g></svg>